<svg xmlns="http://www.w3.org/2000/svg" viewBox="0 0 400 200" fill="none">
  <rect width="400" height="200" fill="#0d1117"/>
  <rect x="1" y="1" width="398" height="198" stroke="#30363d" stroke-width="1"/>
  <text x="16" y="24" fill="#3fb950" font-family="monospace" font-size="11">TOPOLOGY — eNSP / Packet Tracer</text>
  <circle cx="200" cy="55" r="18" fill="#161b22" stroke="#3fb950" stroke-width="1.5"/>
  <text x="200" y="59" fill="#8b949e" font-family="monospace" font-size="9" text-anchor="middle">R1</text>
  <line x1="200" y1="73" x2="120" y2="110" stroke="#484f58" stroke-width="1.5"/>
  <line x1="200" y1="73" x2="280" y2="110" stroke="#484f58" stroke-width="1.5"/>
  <rect x="88" y="110" width="64" height="36" rx="4" fill="#161b22" stroke="#58a6ff" stroke-width="1"/>
  <text x="120" y="132" fill="#8b949e" font-family="monospace" font-size="9" text-anchor="middle">SW1</text>
  <rect x="248" y="110" width="64" height="36" rx="4" fill="#161b22" stroke="#58a6ff" stroke-width="1"/>
  <text x="280" y="132" fill="#8b949e" font-family="monospace" font-size="9" text-anchor="middle">SW2</text>
  <line x1="120" y1="146" x2="80" y2="175" stroke="#484f58" stroke-width="1"/>
  <line x1="120" y1="146" x2="160" y2="175" stroke="#484f58" stroke-width="1"/>
  <line x1="280" y1="146" x2="240" y2="175" stroke="#484f58" stroke-width="1"/>
  <line x1="280" y1="146" x2="320" y2="175" stroke="#484f58" stroke-width="1"/>
  <rect x="56" y="168" width="48" height="24" rx="3" fill="#161b22" stroke="#30363d"/>
  <rect x="136" y="168" width="48" height="24" rx="3" fill="#161b22" stroke="#30363d"/>
  <rect x="216" y="168" width="48" height="24" rx="3" fill="#161b22" stroke="#30363d"/>
  <rect x="296" y="168" width="48" height="24" rx="3" fill="#161b22" stroke="#30363d"/>
  <text x="16" y="192" fill="#484f58" font-family="monospace" font-size="9">VLAN · OSPF · ACL</text>
</svg>
